<svg xmlns="http://www.w3.org/2000/svg" version="1.1" xmlns:xlink="http://www.w3.org/1999/xlink" xmlns:svgjs="http://svgjs.dev/svgjs" viewBox="0 0 1422 800" opacity="0.57"><defs><linearGradient x1="50%" y1="0%" x2="50%" y2="100%" id="oooscillate-grad"><stop stop-color="hsl(154, 75%, 49%)" stop-opacity="1" offset="0%"></stop><stop stop-color="hsl(231, 62%, 56%)" stop-opacity="1" offset="100%"></stop></linearGradient></defs><g stroke-width="3" stroke="url(#oooscillate-grad)" fill="none" stroke-linecap="round"><path d="M 0 533 Q 355.5 80 711 400 Q 1066.5 720 1422 533" opacity="0.20"></path><path d="M 0 492 Q 355.5 80 711 400 Q 1066.5 720 1422 492" opacity="0.38"></path><path d="M 0 451 Q 355.5 80 711 400 Q 1066.5 720 1422 451" opacity="0.18"></path><path d="M 0 410 Q 355.5 80 711 400 Q 1066.5 720 1422 410" opacity="0.93"></path><path d="M 0 369 Q 355.5 80 711 400 Q 1066.5 720 1422 369" opacity="0.45"></path><path d="M 0 328 Q 355.5 80 711 400 Q 1066.5 720 1422 328" opacity="0.51"></path><path d="M 0 287 Q 355.5 80 711 400 Q 1066.5 720 1422 287" opacity="0.50"></path><path d="M 0 246 Q 355.5 80 711 400 Q 1066.5 720 1422 246" opacity="0.53"></path><path d="M 0 205 Q 355.5 80 711 400 Q 1066.5 720 1422 205" opacity="0.87"></path><path d="M 0 164 Q 355.5 80 711 400 Q 1066.5 720 1422 164" opacity="0.58"></path><path d="M 0 123 Q 355.5 80 711 400 Q 1066.5 720 1422 123" opacity="0.08"></path><path d="M 0 82 Q 355.5 80 711 400 Q 1066.5 720 1422 82" opacity="0.20"></path></g></svg>