<svg width="24" height="24" viewBox="0 0 24 24" fill="none"  xmlns="http://www.w3.org/2000/svg">
    <path fill-rule="evenodd" clip-rule="evenodd" d="M7.52032 4.14597C8.292 4.08439 9.02459 3.78094 9.61379 3.27883C10.9888 2.10709 13.011 2.10709 14.386 3.27883C14.9752 3.78094 15.7078 4.08439 16.4795 4.14597C18.2803 4.28968 19.7102 5.71965 19.854 7.52044C19.9155 8.29212 20.219 9.02471 20.7211 9.61391C21.8928 10.9889 21.8928 13.0112 20.7211 14.3861C20.219 14.9753 19.9155 15.7079 19.854 16.4796C19.7102 18.2804 18.2803 19.7104 16.4795 19.8541C15.7078 19.9157 14.9752 20.2191 14.386 20.7212C13.011 21.893 10.9888 21.893 9.61379 20.7212C9.02459 20.2191 8.292 19.9157 7.52032 19.8541C5.71953 19.7104 4.28955 18.2804 4.14585 16.4796C4.08427 15.7079 3.78082 14.9753 3.2787 14.3861C2.10697 13.0112 2.10697 10.9889 3.2787 9.61391C3.78082 9.02471 4.08427 8.29212 4.14585 7.52044C4.28955 5.71965 5.71953 4.28968 7.52032 4.14597ZM16.4484 10.4486C16.9171 9.97992 16.9171 9.22012 16.4484 8.7515C15.9798 8.28287 15.22 8.28287 14.7514 8.7515L10.7999 12.703L9.24843 11.1515C8.7798 10.6829 8.02 10.6829 7.55137 11.1515C7.08275 11.6201 7.08275 12.3799 7.55137 12.8486L9.95137 15.2486C10.42 15.7172 11.1798 15.7172 11.6484 15.2486L16.4484 10.4486Z" fill="#009efa"/>
</svg>
